solid OpenSCAD_Model
  facet normal 0.999048 0.0436161 0
    outer loop
      vertex 2 0 9.4
      vertex 1.99239 0.174311 0
      vertex 1.99239 0.174311 9.4
    endloop
  endfacet
  facet normal 0.999048 0.0436161 0
    outer loop
      vertex 1.99239 0.174311 0
      vertex 2 0 9.4
      vertex 2 0 0
    endloop
  endfacet
  facet normal 0.991448 0.130504 0
    outer loop
      vertex 1.99239 0.174311 9.4
      vertex 1.96962 0.347296 0
      vertex 1.96962 0.347296 9.4
    endloop
  endfacet
  facet normal 0.991448 0.130504 0
    outer loop
      vertex 1.96962 0.347296 0
      vertex 1.99239 0.174311 9.4
      vertex 1.99239 0.174311 0
    endloop
  endfacet
  facet normal 0.976289 0.216473 0
    outer loop
      vertex 1.96962 0.347296 9.4
      vertex 1.93185 0.517638 0
      vertex 1.93185 0.517638 9.4
    endloop
  endfacet
  facet normal 0.976289 0.216473 0
    outer loop
      vertex 1.93185 0.517638 0
      vertex 1.96962 0.347296 9.4
      vertex 1.96962 0.347296 0
    endloop
  endfacet
  facet normal 0.953727 0.300673 0
    outer loop
      vertex 1.93185 0.517638 9.4
      vertex 1.87939 0.68404 0
      vertex 1.87939 0.68404 9.4
    endloop
  endfacet
  facet normal 0.953727 0.300673 0
    outer loop
      vertex 1.87939 0.68404 0
      vertex 1.93185 0.517638 9.4
      vertex 1.93185 0.517638 0
    endloop
  endfacet
  facet normal 0.923879 0.382684 0
    outer loop
      vertex 1.87939 0.68404 9.4
      vertex 1.81262 0.845237 0
      vertex 1.81262 0.845237 9.4
    endloop
  endfacet
  facet normal 0.923879 0.382684 0
    outer loop
      vertex 1.81262 0.845237 0
      vertex 1.87939 0.68404 9.4
      vertex 1.87939 0.68404 0
    endloop
  endfacet
  facet normal 0.886998 0.461773 0
    outer loop
      vertex 1.81262 0.845237 9.4
      vertex 1.73205 1 0
      vertex 1.73205 1 9.4
    endloop
  endfacet
  facet normal 0.886998 0.461773 0
    outer loop
      vertex 1.73205 1 0
      vertex 1.81262 0.845237 9.4
      vertex 1.81262 0.845237 0
    endloop
  endfacet
  facet normal 0.843378 0.53732 0
    outer loop
      vertex 1.73205 1 9.4
      vertex 1.6383 1.14715 0
      vertex 1.6383 1.14715 9.4
    endloop
  endfacet
  facet normal 0.843378 0.53732 0
    outer loop
      vertex 1.6383 1.14715 0
      vertex 1.73205 1 9.4
      vertex 1.73205 1 0
    endloop
  endfacet
  facet normal 0.793384 0.608721 0
    outer loop
      vertex 1.6383 1.14715 9.4
      vertex 1.53209 1.28558 0
      vertex 1.53209 1.28558 9.4
    endloop
  endfacet
  facet normal 0.793384 0.608721 0
    outer loop
      vertex 1.53209 1.28558 0
      vertex 1.6383 1.14715 9.4
      vertex 1.6383 1.14715 0
    endloop
  endfacet
  facet normal 0.737242 0.675629 0
    outer loop
      vertex 1.53209 1.28558 9.4
      vertex 1.41421 1.41421 0
      vertex 1.41421 1.41421 9.4
    endloop
  endfacet
  facet normal 0.737242 0.675629 0
    outer loop
      vertex 1.41421 1.41421 0
      vertex 1.53209 1.28558 9.4
      vertex 1.53209 1.28558 0
    endloop
  endfacet
  facet normal 0.675629 0.737242 -0
    outer loop
      vertex 1.41421 1.41421 0
      vertex 1.28558 1.53209 9.4
      vertex 1.41421 1.41421 9.4
    endloop
  endfacet
  facet normal 0.675629 0.737242 0
    outer loop
      vertex 1.28558 1.53209 9.4
      vertex 1.41421 1.41421 0
      vertex 1.28558 1.53209 0
    endloop
  endfacet
  facet normal 0.608721 0.793384 -0
    outer loop
      vertex 1.28558 1.53209 0
      vertex 1.14715 1.6383 9.4
      vertex 1.28558 1.53209 9.4
    endloop
  endfacet
  facet normal 0.608721 0.793384 0
    outer loop
      vertex 1.14715 1.6383 9.4
      vertex 1.28558 1.53209 0
      vertex 1.14715 1.6383 0
    endloop
  endfacet
  facet normal 0.53732 0.843378 -0
    outer loop
      vertex 1.14715 1.6383 0
      vertex 1 1.73205 9.4
      vertex 1.14715 1.6383 9.4
    endloop
  endfacet
  facet normal 0.53732 0.843378 0
    outer loop
      vertex 1 1.73205 9.4
      vertex 1.14715 1.6383 0
      vertex 1 1.73205 0
    endloop
  endfacet
  facet normal 0.461773 0.886998 -0
    outer loop
      vertex 1 1.73205 0
      vertex 0.845237 1.81262 9.4
      vertex 1 1.73205 9.4
    endloop
  endfacet
  facet normal 0.461773 0.886998 0
    outer loop
      vertex 0.845237 1.81262 9.4
      vertex 1 1.73205 0
      vertex 0.845237 1.81262 0
    endloop
  endfacet
  facet normal 0.382684 0.923879 -0
    outer loop
      vertex 0.845237 1.81262 0
      vertex 0.68404 1.87939 9.4
      vertex 0.845237 1.81262 9.4
    endloop
  endfacet
  facet normal 0.382684 0.923879 0
    outer loop
      vertex 0.68404 1.87939 9.4
      vertex 0.845237 1.81262 0
      vertex 0.68404 1.87939 0
    endloop
  endfacet
  facet normal 0.300673 0.953727 -0
    outer loop
      vertex 0.68404 1.87939 0
      vertex 0.517638 1.93185 9.4
      vertex 0.68404 1.87939 9.4
    endloop
  endfacet
  facet normal 0.300673 0.953727 0
    outer loop
      vertex 0.517638 1.93185 9.4
      vertex 0.68404 1.87939 0
      vertex 0.517638 1.93185 0
    endloop
  endfacet
  facet normal 0.216473 0.976289 -0
    outer loop
      vertex 0.517638 1.93185 0
      vertex 0.347296 1.96962 9.4
      vertex 0.517638 1.93185 9.4
    endloop
  endfacet
  facet normal 0.216473 0.976289 0
    outer loop
      vertex 0.347296 1.96962 9.4
      vertex 0.517638 1.93185 0
      vertex 0.347296 1.96962 0
    endloop
  endfacet
  facet normal 0.130504 0.991448 -0
    outer loop
      vertex 0.347296 1.96962 0
      vertex 0.174311 1.99239 9.4
      vertex 0.347296 1.96962 9.4
    endloop
  endfacet
  facet normal 0.130504 0.991448 0
    outer loop
      vertex 0.174311 1.99239 9.4
      vertex 0.347296 1.96962 0
      vertex 0.174311 1.99239 0
    endloop
  endfacet
  facet normal 0.0436161 0.999048 -0
    outer loop
      vertex 0.174311 1.99239 0
      vertex 0 2 9.4
      vertex 0.174311 1.99239 9.4
    endloop
  endfacet
  facet normal 0.0436161 0.999048 0
    outer loop
      vertex 0 2 9.4
      vertex 0.174311 1.99239 0
      vertex 0 2 0
    endloop
  endfacet
  facet normal -0.0436161 0.999048 0
    outer loop
      vertex 0 2 0
      vertex -0.174311 1.99239 9.4
      vertex 0 2 9.4
    endloop
  endfacet
  facet normal -0.0436161 0.999048 0
    outer loop
      vertex -0.174311 1.99239 9.4
      vertex 0 2 0
      vertex -0.174311 1.99239 0
    endloop
  endfacet
  facet normal -0.130504 0.991448 0
    outer loop
      vertex -0.174311 1.99239 0
      vertex -0.347296 1.96962 9.4
      vertex -0.174311 1.99239 9.4
    endloop
  endfacet
  facet normal -0.130504 0.991448 0
    outer loop
      vertex -0.347296 1.96962 9.4
      vertex -0.174311 1.99239 0
      vertex -0.347296 1.96962 0
    endloop
  endfacet
  facet normal -0.216473 0.976289 0
    outer loop
      vertex -0.347296 1.96962 0
      vertex -0.517638 1.93185 9.4
      vertex -0.347296 1.96962 9.4
    endloop
  endfacet
  facet normal -0.216473 0.976289 0
    outer loop
      vertex -0.517638 1.93185 9.4
      vertex -0.347296 1.96962 0
      vertex -0.517638 1.93185 0
    endloop
  endfacet
  facet normal -0.300673 0.953727 0
    outer loop
      vertex -0.517638 1.93185 0
      vertex -0.68404 1.87939 9.4
      vertex -0.517638 1.93185 9.4
    endloop
  endfacet
  facet normal -0.300673 0.953727 0
    outer loop
      vertex -0.68404 1.87939 9.4
      vertex -0.517638 1.93185 0
      vertex -0.68404 1.87939 0
    endloop
  endfacet
  facet normal -0.382684 0.923879 0
    outer loop
      vertex -0.68404 1.87939 0
      vertex -0.845237 1.81262 9.4
      vertex -0.68404 1.87939 9.4
    endloop
  endfacet
  facet normal -0.382684 0.923879 0
    outer loop
      vertex -0.845237 1.81262 9.4
      vertex -0.68404 1.87939 0
      vertex -0.845237 1.81262 0
    endloop
  endfacet
  facet normal -0.461773 0.886998 0
    outer loop
      vertex -0.845237 1.81262 0
      vertex -1 1.73205 9.4
      vertex -0.845237 1.81262 9.4
    endloop
  endfacet
  facet normal -0.461773 0.886998 0
    outer loop
      vertex -1 1.73205 9.4
      vertex -0.845237 1.81262 0
      vertex -1 1.73205 0
    endloop
  endfacet
  facet normal -0.53732 0.843378 0
    outer loop
      vertex -1 1.73205 0
      vertex -1.14715 1.6383 9.4
      vertex -1 1.73205 9.4
    endloop
  endfacet
  facet normal -0.53732 0.843378 0
    outer loop
      vertex -1.14715 1.6383 9.4
      vertex -1 1.73205 0
      vertex -1.14715 1.6383 0
    endloop
  endfacet
  facet normal -0.608721 0.793384 0
    outer loop
      vertex -1.14715 1.6383 0
      vertex -1.28558 1.53209 9.4
      vertex -1.14715 1.6383 9.4
    endloop
  endfacet
  facet normal -0.608721 0.793384 0
    outer loop
      vertex -1.28558 1.53209 9.4
      vertex -1.14715 1.6383 0
      vertex -1.28558 1.53209 0
    endloop
  endfacet
  facet normal -0.675629 0.737242 0
    outer loop
      vertex -1.28558 1.53209 0
      vertex -1.41421 1.41421 9.4
      vertex -1.28558 1.53209 9.4
    endloop
  endfacet
  facet normal -0.675629 0.737242 0
    outer loop
      vertex -1.41421 1.41421 9.4
      vertex -1.28558 1.53209 0
      vertex -1.41421 1.41421 0
    endloop
  endfacet
  facet normal -0.737242 0.675629 0
    outer loop
      vertex -1.53209 1.28558 0
      vertex -1.41421 1.41421 9.4
      vertex -1.41421 1.41421 0
    endloop
  endfacet
  facet normal -0.737242 0.675629 0
    outer loop
      vertex -1.41421 1.41421 9.4
      vertex -1.53209 1.28558 0
      vertex -1.53209 1.28558 9.4
    endloop
  endfacet
  facet normal -0.793384 0.608721 0
    outer loop
      vertex -1.6383 1.14715 0
      vertex -1.53209 1.28558 9.4
      vertex -1.53209 1.28558 0
    endloop
  endfacet
  facet normal -0.793384 0.608721 0
    outer loop
      vertex -1.53209 1.28558 9.4
      vertex -1.6383 1.14715 0
      vertex -1.6383 1.14715 9.4
    endloop
  endfacet
  facet normal -0.843378 0.53732 0
    outer loop
      vertex -1.73205 1 0
      vertex -1.6383 1.14715 9.4
      vertex -1.6383 1.14715 0
    endloop
  endfacet
  facet normal -0.843378 0.53732 0
    outer loop
      vertex -1.6383 1.14715 9.4
      vertex -1.73205 1 0
      vertex -1.73205 1 9.4
    endloop
  endfacet
  facet normal -0.886998 0.461773 0
    outer loop
      vertex -1.81262 0.845237 0
      vertex -1.73205 1 9.4
      vertex -1.73205 1 0
    endloop
  endfacet
  facet normal -0.886998 0.461773 0
    outer loop
      vertex -1.73205 1 9.4
      vertex -1.81262 0.845237 0
      vertex -1.81262 0.845237 9.4
    endloop
  endfacet
  facet normal -0.923879 0.382684 0
    outer loop
      vertex -1.87939 0.68404 0
      vertex -1.81262 0.845237 9.4
      vertex -1.81262 0.845237 0
    endloop
  endfacet
  facet normal -0.923879 0.382684 0
    outer loop
      vertex -1.81262 0.845237 9.4
      vertex -1.87939 0.68404 0
      vertex -1.87939 0.68404 9.4
    endloop
  endfacet
  facet normal -0.953727 0.300673 0
    outer loop
      vertex -1.93185 0.517638 0
      vertex -1.87939 0.68404 9.4
      vertex -1.87939 0.68404 0
    endloop
  endfacet
  facet normal -0.953727 0.300673 0
    outer loop
      vertex -1.87939 0.68404 9.4
      vertex -1.93185 0.517638 0
      vertex -1.93185 0.517638 9.4
    endloop
  endfacet
  facet normal -0.976289 0.216473 0
    outer loop
      vertex -1.96962 0.347296 0
      vertex -1.93185 0.517638 9.4
      vertex -1.93185 0.517638 0
    endloop
  endfacet
  facet normal -0.976289 0.216473 0
    outer loop
      vertex -1.93185 0.517638 9.4
      vertex -1.96962 0.347296 0
      vertex -1.96962 0.347296 9.4
    endloop
  endfacet
  facet normal -0.991448 0.130504 0
    outer loop
      vertex -1.99239 0.174311 0
      vertex -1.96962 0.347296 9.4
      vertex -1.96962 0.347296 0
    endloop
  endfacet
  facet normal -0.991448 0.130504 0
    outer loop
      vertex -1.96962 0.347296 9.4
      vertex -1.99239 0.174311 0
      vertex -1.99239 0.174311 9.4
    endloop
  endfacet
  facet normal -0.999048 0.0436161 0
    outer loop
      vertex -2 -0 0
      vertex -1.99239 0.174311 9.4
      vertex -1.99239 0.174311 0
    endloop
  endfacet
  facet normal -0.999048 0.0436161 0
    outer loop
      vertex -1.99239 0.174311 9.4
      vertex -2 -0 0
      vertex -2 -0 9.4
    endloop
  endfacet
  facet normal -0.999048 -0.0436161 0
    outer loop
      vertex -1.99239 -0.174311 0
      vertex -2 -0 9.4
      vertex -2 -0 0
    endloop
  endfacet
  facet normal -0.999048 -0.0436161 0
    outer loop
      vertex -2 -0 9.4
      vertex -1.99239 -0.174311 0
      vertex -1.99239 -0.174311 9.4
    endloop
  endfacet
  facet normal -0.991448 -0.130504 0
    outer loop
      vertex -1.96962 -0.347296 0
      vertex -1.99239 -0.174311 9.4
      vertex -1.99239 -0.174311 0
    endloop
  endfacet
  facet normal -0.991448 -0.130504 0
    outer loop
      vertex -1.99239 -0.174311 9.4
      vertex -1.96962 -0.347296 0
      vertex -1.96962 -0.347296 9.4
    endloop
  endfacet
  facet normal -0.976289 -0.216473 0
    outer loop
      vertex -1.93185 -0.517638 0
      vertex -1.96962 -0.347296 9.4
      vertex -1.96962 -0.347296 0
    endloop
  endfacet
  facet normal -0.976289 -0.216473 0
    outer loop
      vertex -1.96962 -0.347296 9.4
      vertex -1.93185 -0.517638 0
      vertex -1.93185 -0.517638 9.4
    endloop
  endfacet
  facet normal -0.953727 -0.300673 0
    outer loop
      vertex -1.87939 -0.68404 0
      vertex -1.93185 -0.517638 9.4
      vertex -1.93185 -0.517638 0
    endloop
  endfacet
  facet normal -0.953727 -0.300673 0
    outer loop
      vertex -1.93185 -0.517638 9.4
      vertex -1.87939 -0.68404 0
      vertex -1.87939 -0.68404 9.4
    endloop
  endfacet
  facet normal -0.923879 -0.382684 0
    outer loop
      vertex -1.81262 -0.845237 0
      vertex -1.87939 -0.68404 9.4
      vertex -1.87939 -0.68404 0
    endloop
  endfacet
  facet normal -0.923879 -0.382684 0
    outer loop
      vertex -1.87939 -0.68404 9.4
      vertex -1.81262 -0.845237 0
      vertex -1.81262 -0.845237 9.4
    endloop
  endfacet
  facet normal -0.886998 -0.461773 0
    outer loop
      vertex -1.73205 -1 0
      vertex -1.81262 -0.845237 9.4
      vertex -1.81262 -0.845237 0
    endloop
  endfacet
  facet normal -0.886998 -0.461773 0
    outer loop
      vertex -1.81262 -0.845237 9.4
      vertex -1.73205 -1 0
      vertex -1.73205 -1 9.4
    endloop
  endfacet
  facet normal -0.843378 -0.53732 0
    outer loop
      vertex -1.6383 -1.14715 0
      vertex -1.73205 -1 9.4
      vertex -1.73205 -1 0
    endloop
  endfacet
  facet normal -0.843378 -0.53732 0
    outer loop
      vertex -1.73205 -1 9.4
      vertex -1.6383 -1.14715 0
      vertex -1.6383 -1.14715 9.4
    endloop
  endfacet
  facet normal -0.793384 -0.608721 0
    outer loop
      vertex -1.53209 -1.28558 0
      vertex -1.6383 -1.14715 9.4
      vertex -1.6383 -1.14715 0
    endloop
  endfacet
  facet normal -0.793384 -0.608721 0
    outer loop
      vertex -1.6383 -1.14715 9.4
      vertex -1.53209 -1.28558 0
      vertex -1.53209 -1.28558 9.4
    endloop
  endfacet
  facet normal -0.737242 -0.675629 0
    outer loop
      vertex -1.41421 -1.41421 0
      vertex -1.53209 -1.28558 9.4
      vertex -1.53209 -1.28558 0
    endloop
  endfacet
  facet normal -0.737242 -0.675629 0
    outer loop
      vertex -1.53209 -1.28558 9.4
      vertex -1.41421 -1.41421 0
      vertex -1.41421 -1.41421 9.4
    endloop
  endfacet
  facet normal -0.675629 -0.737242 0
    outer loop
      vertex -1.41421 -1.41421 0
      vertex -1.28558 -1.53209 9.4
      vertex -1.41421 -1.41421 9.4
    endloop
  endfacet
  facet normal -0.675629 -0.737242 -0
    outer loop
      vertex -1.28558 -1.53209 9.4
      vertex -1.41421 -1.41421 0
      vertex -1.28558 -1.53209 0
    endloop
  endfacet
  facet normal -0.608721 -0.793384 0
    outer loop
      vertex -1.28558 -1.53209 0
      vertex -1.14715 -1.6383 9.4
      vertex -1.28558 -1.53209 9.4
    endloop
  endfacet
  facet normal -0.608721 -0.793384 -0
    outer loop
      vertex -1.14715 -1.6383 9.4
      vertex -1.28558 -1.53209 0
      vertex -1.14715 -1.6383 0
    endloop
  endfacet
  facet normal -0.53732 -0.843378 0
    outer loop
      vertex -1.14715 -1.6383 0
      vertex -1 -1.73205 9.4
      vertex -1.14715 -1.6383 9.4
    endloop
  endfacet
  facet normal -0.53732 -0.843378 -0
    outer loop
      vertex -1 -1.73205 9.4
      vertex -1.14715 -1.6383 0
      vertex -1 -1.73205 0
    endloop
  endfacet
  facet normal -0.461773 -0.886998 0
    outer loop
      vertex -1 -1.73205 0
      vertex -0.845237 -1.81262 9.4
      vertex -1 -1.73205 9.4
    endloop
  endfacet
  facet normal -0.461773 -0.886998 -0
    outer loop
      vertex -0.845237 -1.81262 9.4
      vertex -1 -1.73205 0
      vertex -0.845237 -1.81262 0
    endloop
  endfacet
  facet normal -0.382684 -0.923879 0
    outer loop
      vertex -0.845237 -1.81262 0
      vertex -0.68404 -1.87939 9.4
      vertex -0.845237 -1.81262 9.4
    endloop
  endfacet
  facet normal -0.382684 -0.923879 -0
    outer loop
      vertex -0.68404 -1.87939 9.4
      vertex -0.845237 -1.81262 0
      vertex -0.68404 -1.87939 0
    endloop
  endfacet
  facet normal -0.300673 -0.953727 0
    outer loop
      vertex -0.68404 -1.87939 0
      vertex -0.517638 -1.93185 9.4
      vertex -0.68404 -1.87939 9.4
    endloop
  endfacet
  facet normal -0.300673 -0.953727 -0
    outer loop
      vertex -0.517638 -1.93185 9.4
      vertex -0.68404 -1.87939 0
      vertex -0.517638 -1.93185 0
    endloop
  endfacet
  facet normal -0.216473 -0.976289 0
    outer loop
      vertex -0.517638 -1.93185 0
      vertex -0.347296 -1.96962 9.4
      vertex -0.517638 -1.93185 9.4
    endloop
  endfacet
  facet normal -0.216473 -0.976289 -0
    outer loop
      vertex -0.347296 -1.96962 9.4
      vertex -0.517638 -1.93185 0
      vertex -0.347296 -1.96962 0
    endloop
  endfacet
  facet normal -0.130504 -0.991448 0
    outer loop
      vertex -0.347296 -1.96962 0
      vertex -0.174311 -1.99239 9.4
      vertex -0.347296 -1.96962 9.4
    endloop
  endfacet
  facet normal -0.130504 -0.991448 -0
    outer loop
      vertex -0.174311 -1.99239 9.4
      vertex -0.347296 -1.96962 0
      vertex -0.174311 -1.99239 0
    endloop
  endfacet
  facet normal -0.0436161 -0.999048 0
    outer loop
      vertex -0.174311 -1.99239 0
      vertex -0 -2 9.4
      vertex -0.174311 -1.99239 9.4
    endloop
  endfacet
  facet normal -0.0436161 -0.999048 -0
    outer loop
      vertex -0 -2 9.4
      vertex -0.174311 -1.99239 0
      vertex -0 -2 0
    endloop
  endfacet
  facet normal 0.0436161 -0.999048 0
    outer loop
      vertex -0 -2 0
      vertex 0.174311 -1.99239 9.4
      vertex -0 -2 9.4
    endloop
  endfacet
  facet normal 0.0436161 -0.999048 0
    outer loop
      vertex 0.174311 -1.99239 9.4
      vertex -0 -2 0
      vertex 0.174311 -1.99239 0
    endloop
  endfacet
  facet normal 0.130504 -0.991448 0
    outer loop
      vertex 0.174311 -1.99239 0
      vertex 0.347296 -1.96962 9.4
      vertex 0.174311 -1.99239 9.4
    endloop
  endfacet
  facet normal 0.130504 -0.991448 0
    outer loop
      vertex 0.347296 -1.96962 9.4
      vertex 0.174311 -1.99239 0
      vertex 0.347296 -1.96962 0
    endloop
  endfacet
  facet normal 0.216473 -0.976289 0
    outer loop
      vertex 0.347296 -1.96962 0
      vertex 0.517638 -1.93185 9.4
      vertex 0.347296 -1.96962 9.4
    endloop
  endfacet
  facet normal 0.216473 -0.976289 0
    outer loop
      vertex 0.517638 -1.93185 9.4
      vertex 0.347296 -1.96962 0
      vertex 0.517638 -1.93185 0
    endloop
  endfacet
  facet normal 0.300673 -0.953727 0
    outer loop
      vertex 0.517638 -1.93185 0
      vertex 0.68404 -1.87939 9.4
      vertex 0.517638 -1.93185 9.4
    endloop
  endfacet
  facet normal 0.300673 -0.953727 0
    outer loop
      vertex 0.68404 -1.87939 9.4
      vertex 0.517638 -1.93185 0
      vertex 0.68404 -1.87939 0
    endloop
  endfacet
  facet normal 0.382684 -0.923879 0
    outer loop
      vertex 0.68404 -1.87939 0
      vertex 0.845237 -1.81262 9.4
      vertex 0.68404 -1.87939 9.4
    endloop
  endfacet
  facet normal 0.382684 -0.923879 0
    outer loop
      vertex 0.845237 -1.81262 9.4
      vertex 0.68404 -1.87939 0
      vertex 0.845237 -1.81262 0
    endloop
  endfacet
  facet normal 0.461773 -0.886998 0
    outer loop
      vertex 0.845237 -1.81262 0
      vertex 1 -1.73205 9.4
      vertex 0.845237 -1.81262 9.4
    endloop
  endfacet
  facet normal 0.461773 -0.886998 0
    outer loop
      vertex 1 -1.73205 9.4
      vertex 0.845237 -1.81262 0
      vertex 1 -1.73205 0
    endloop
  endfacet
  facet normal 0.53732 -0.843378 0
    outer loop
      vertex 1 -1.73205 0
      vertex 1.14715 -1.6383 9.4
      vertex 1 -1.73205 9.4
    endloop
  endfacet
  facet normal 0.53732 -0.843378 0
    outer loop
      vertex 1.14715 -1.6383 9.4
      vertex 1 -1.73205 0
      vertex 1.14715 -1.6383 0
    endloop
  endfacet
  facet normal 0.608721 -0.793384 0
    outer loop
      vertex 1.14715 -1.6383 0
      vertex 1.28558 -1.53209 9.4
      vertex 1.14715 -1.6383 9.4
    endloop
  endfacet
  facet normal 0.608721 -0.793384 0
    outer loop
      vertex 1.28558 -1.53209 9.4
      vertex 1.14715 -1.6383 0
      vertex 1.28558 -1.53209 0
    endloop
  endfacet
  facet normal 0.675629 -0.737242 0
    outer loop
      vertex 1.28558 -1.53209 0
      vertex 1.41421 -1.41421 9.4
      vertex 1.28558 -1.53209 9.4
    endloop
  endfacet
  facet normal 0.675629 -0.737242 0
    outer loop
      vertex 1.41421 -1.41421 9.4
      vertex 1.28558 -1.53209 0
      vertex 1.41421 -1.41421 0
    endloop
  endfacet
  facet normal 0.737242 -0.675629 0
    outer loop
      vertex 1.41421 -1.41421 9.4
      vertex 1.53209 -1.28558 0
      vertex 1.53209 -1.28558 9.4
    endloop
  endfacet
  facet normal 0.737242 -0.675629 0
    outer loop
      vertex 1.53209 -1.28558 0
      vertex 1.41421 -1.41421 9.4
      vertex 1.41421 -1.41421 0
    endloop
  endfacet
  facet normal 0.793384 -0.608721 0
    outer loop
      vertex 1.53209 -1.28558 9.4
      vertex 1.6383 -1.14715 0
      vertex 1.6383 -1.14715 9.4
    endloop
  endfacet
  facet normal 0.793384 -0.608721 0
    outer loop
      vertex 1.6383 -1.14715 0
      vertex 1.53209 -1.28558 9.4
      vertex 1.53209 -1.28558 0
    endloop
  endfacet
  facet normal 0.843378 -0.53732 0
    outer loop
      vertex 1.6383 -1.14715 9.4
      vertex 1.73205 -1 0
      vertex 1.73205 -1 9.4
    endloop
  endfacet
  facet normal 0.843378 -0.53732 0
    outer loop
      vertex 1.73205 -1 0
      vertex 1.6383 -1.14715 9.4
      vertex 1.6383 -1.14715 0
    endloop
  endfacet
  facet normal 0.886998 -0.461773 0
    outer loop
      vertex 1.73205 -1 9.4
      vertex 1.81262 -0.845237 0
      vertex 1.81262 -0.845237 9.4
    endloop
  endfacet
  facet normal 0.886998 -0.461773 0
    outer loop
      vertex 1.81262 -0.845237 0
      vertex 1.73205 -1 9.4
      vertex 1.73205 -1 0
    endloop
  endfacet
  facet normal 0.923879 -0.382684 0
    outer loop
      vertex 1.81262 -0.845237 9.4
      vertex 1.87939 -0.68404 0
      vertex 1.87939 -0.68404 9.4
    endloop
  endfacet
  facet normal 0.923879 -0.382684 0
    outer loop
      vertex 1.87939 -0.68404 0
      vertex 1.81262 -0.845237 9.4
      vertex 1.81262 -0.845237 0
    endloop
  endfacet
  facet normal 0.953727 -0.300673 0
    outer loop
      vertex 1.87939 -0.68404 9.4
      vertex 1.93185 -0.517638 0
      vertex 1.93185 -0.517638 9.4
    endloop
  endfacet
  facet normal 0.953727 -0.300673 0
    outer loop
      vertex 1.93185 -0.517638 0
      vertex 1.87939 -0.68404 9.4
      vertex 1.87939 -0.68404 0
    endloop
  endfacet
  facet normal 0.976289 -0.216473 0
    outer loop
      vertex 1.93185 -0.517638 9.4
      vertex 1.96962 -0.347296 0
      vertex 1.96962 -0.347296 9.4
    endloop
  endfacet
  facet normal 0.976289 -0.216473 0
    outer loop
      vertex 1.96962 -0.347296 0
      vertex 1.93185 -0.517638 9.4
      vertex 1.93185 -0.517638 0
    endloop
  endfacet
  facet normal 0.991448 -0.130504 0
    outer loop
      vertex 1.96962 -0.347296 9.4
      vertex 1.99239 -0.174311 0
      vertex 1.99239 -0.174311 9.4
    endloop
  endfacet
  facet normal 0.991448 -0.130504 0
    outer loop
      vertex 1.99239 -0.174311 0
      vertex 1.96962 -0.347296 9.4
      vertex 1.96962 -0.347296 0
    endloop
  endfacet
  facet normal 0.999048 -0.0436161 0
    outer loop
      vertex 1.99239 -0.174311 9.4
      vertex 2 0 0
      vertex 2 0 9.4
    endloop
  endfacet
  facet normal 0.999048 -0.0436161 0
    outer loop
      vertex 2 0 0
      vertex 1.99239 -0.174311 9.4
      vertex 1.99239 -0.174311 0
    endloop
  endfacet
  facet normal 0 0 -1
    outer loop
      vertex 1.99239 -0.174311 0
      vertex 1.99239 0.174311 0
      vertex 2 0 0
    endloop
  endfacet
  facet normal 0 0 -1
    outer loop
      vertex 1.96962 -0.347296 0
      vertex 1.99239 0.174311 0
      vertex 1.99239 -0.174311 0
    endloop
  endfacet
  facet normal 0 0 -1
    outer loop
      vertex 1.96962 -0.347296 0
      vertex 1.96962 0.347296 0
      vertex 1.99239 0.174311 0
    endloop
  endfacet
  facet normal 0 0 -1
    outer loop
      vertex 1.93185 -0.517638 0
      vertex 1.96962 0.347296 0
      vertex 1.96962 -0.347296 0
    endloop
  endfacet
  facet normal 0 0 -1
    outer loop
      vertex 1.93185 -0.517638 0
      vertex 1.93185 0.517638 0
      vertex 1.96962 0.347296 0
    endloop
  endfacet
  facet normal 0 0 -1
    outer loop
      vertex 1.87939 -0.68404 0
      vertex 1.93185 0.517638 0
      vertex 1.93185 -0.517638 0
    endloop
  endfacet
  facet normal 0 0 -1
    outer loop
      vertex 1.87939 -0.68404 0
      vertex 1.87939 0.68404 0
      vertex 1.93185 0.517638 0
    endloop
  endfacet
  facet normal 0 0 -1
    outer loop
      vertex 1.81262 -0.845237 0
      vertex 1.87939 0.68404 0
      vertex 1.87939 -0.68404 0
    endloop
  endfacet
  facet normal 0 0 -1
    outer loop
      vertex 1.81262 -0.845237 0
      vertex 1.81262 0.845237 0
      vertex 1.87939 0.68404 0
    endloop
  endfacet
  facet normal 0 0 -1
    outer loop
      vertex 1.73205 -1 0
      vertex 1.81262 0.845237 0
      vertex 1.81262 -0.845237 0
    endloop
  endfacet
  facet normal 0 0 -1
    outer loop
      vertex 1.73205 -1 0
      vertex 1.73205 1 0
      vertex 1.81262 0.845237 0
    endloop
  endfacet
  facet normal 0 0 -1
    outer loop
      vertex 1.6383 -1.14715 0
      vertex 1.73205 1 0
      vertex 1.73205 -1 0
    endloop
  endfacet
  facet normal 0 0 -1
    outer loop
      vertex 1.6383 -1.14715 0
      vertex 1.6383 1.14715 0
      vertex 1.73205 1 0
    endloop
  endfacet
  facet normal 0 0 -1
    outer loop
      vertex 1.53209 -1.28558 0
      vertex 1.6383 1.14715 0
      vertex 1.6383 -1.14715 0
    endloop
  endfacet
  facet normal 0 0 -1
    outer loop
      vertex 1.53209 -1.28558 0
      vertex 1.53209 1.28558 0
      vertex 1.6383 1.14715 0
    endloop
  endfacet
  facet normal 0 0 -1
    outer loop
      vertex 1.41421 -1.41421 0
      vertex 1.53209 1.28558 0
      vertex 1.53209 -1.28558 0
    endloop
  endfacet
  facet normal 0 0 -1
    outer loop
      vertex 1.41421 -1.41421 0
      vertex 1.41421 1.41421 0
      vertex 1.53209 1.28558 0
    endloop
  endfacet
  facet normal 0 0 -1
    outer loop
      vertex 1.28558 -1.53209 0
      vertex 1.41421 1.41421 0
      vertex 1.41421 -1.41421 0
    endloop
  endfacet
  facet normal 0 0 -1
    outer loop
      vertex 1.28558 -1.53209 0
      vertex 1.28558 1.53209 0
      vertex 1.41421 1.41421 0
    endloop
  endfacet
  facet normal 0 0 -1
    outer loop
      vertex 1.14715 -1.6383 0
      vertex 1.28558 1.53209 0
      vertex 1.28558 -1.53209 0
    endloop
  endfacet
  facet normal 0 0 -1
    outer loop
      vertex 1.14715 -1.6383 0
      vertex 1.14715 1.6383 0
      vertex 1.28558 1.53209 0
    endloop
  endfacet
  facet normal 0 0 -1
    outer loop
      vertex 1 -1.73205 0
      vertex 1.14715 1.6383 0
      vertex 1.14715 -1.6383 0
    endloop
  endfacet
  facet normal 0 0 -1
    outer loop
      vertex 1 -1.73205 0
      vertex 1 1.73205 0
      vertex 1.14715 1.6383 0
    endloop
  endfacet
  facet normal 0 0 -1
    outer loop
      vertex 0.845237 -1.81262 0
      vertex 1 1.73205 0
      vertex 1 -1.73205 0
    endloop
  endfacet
  facet normal 0 0 -1
    outer loop
      vertex 0.845237 -1.81262 0
      vertex 0.845237 1.81262 0
      vertex 1 1.73205 0
    endloop
  endfacet
  facet normal 0 0 -1
    outer loop
      vertex 0.68404 -1.87939 0
      vertex 0.845237 1.81262 0
      vertex 0.845237 -1.81262 0
    endloop
  endfacet
  facet normal 0 0 -1
    outer loop
      vertex 0.68404 -1.87939 0
      vertex 0.68404 1.87939 0
      vertex 0.845237 1.81262 0
    endloop
  endfacet
  facet normal 0 0 -1
    outer loop
      vertex 0.517638 -1.93185 0
      vertex 0.68404 1.87939 0
      vertex 0.68404 -1.87939 0
    endloop
  endfacet
  facet normal 0 0 -1
    outer loop
      vertex 0.517638 -1.93185 0
      vertex 0.517638 1.93185 0
      vertex 0.68404 1.87939 0
    endloop
  endfacet
  facet normal 0 0 -1
    outer loop
      vertex 0.347296 -1.96962 0
      vertex 0.517638 1.93185 0
      vertex 0.517638 -1.93185 0
    endloop
  endfacet
  facet normal 0 0 -1
    outer loop
      vertex 0.347296 -1.96962 0
      vertex 0.347296 1.96962 0
      vertex 0.517638 1.93185 0
    endloop
  endfacet
  facet normal 0 0 -1
    outer loop
      vertex 0.174311 -1.99239 0
      vertex 0.347296 1.96962 0
      vertex 0.347296 -1.96962 0
    endloop
  endfacet
  facet normal 0 0 -1
    outer loop
      vertex 0.174311 -1.99239 0
      vertex 0.174311 1.99239 0
      vertex 0.347296 1.96962 0
    endloop
  endfacet
  facet normal 0 0 -1
    outer loop
      vertex -0 -2 0
      vertex 0.174311 1.99239 0
      vertex 0.174311 -1.99239 0
    endloop
  endfacet
  facet normal 0 0 -1
    outer loop
      vertex -0 -2 0
      vertex 0 2 0
      vertex 0.174311 1.99239 0
    endloop
  endfacet
  facet normal 0 0 -1
    outer loop
      vertex -0.174311 -1.99239 0
      vertex 0 2 0
      vertex -0 -2 0
    endloop
  endfacet
  facet normal 0 0 -1
    outer loop
      vertex -0.174311 -1.99239 0
      vertex -0.174311 1.99239 0
      vertex 0 2 0
    endloop
  endfacet
  facet normal 0 0 -1
    outer loop
      vertex -0.347296 -1.96962 0
      vertex -0.174311 1.99239 0
      vertex -0.174311 -1.99239 0
    endloop
  endfacet
  facet normal 0 0 -1
    outer loop
      vertex -0.347296 -1.96962 0
      vertex -0.347296 1.96962 0
      vertex -0.174311 1.99239 0
    endloop
  endfacet
  facet normal 0 0 -1
    outer loop
      vertex -0.517638 -1.93185 0
      vertex -0.347296 1.96962 0
      vertex -0.347296 -1.96962 0
    endloop
  endfacet
  facet normal 0 0 -1
    outer loop
      vertex -0.517638 -1.93185 0
      vertex -0.517638 1.93185 0
      vertex -0.347296 1.96962 0
    endloop
  endfacet
  facet normal 0 0 -1
    outer loop
      vertex -0.68404 -1.87939 0
      vertex -0.517638 1.93185 0
      vertex -0.517638 -1.93185 0
    endloop
  endfacet
  facet normal 0 0 -1
    outer loop
      vertex -0.68404 -1.87939 0
      vertex -0.68404 1.87939 0
      vertex -0.517638 1.93185 0
    endloop
  endfacet
  facet normal 0 0 -1
    outer loop
      vertex -0.845237 -1.81262 0
      vertex -0.68404 1.87939 0
      vertex -0.68404 -1.87939 0
    endloop
  endfacet
  facet normal 0 0 -1
    outer loop
      vertex -0.845237 -1.81262 0
      vertex -0.845237 1.81262 0
      vertex -0.68404 1.87939 0
    endloop
  endfacet
  facet normal 0 0 -1
    outer loop
      vertex -1 -1.73205 0
      vertex -0.845237 1.81262 0
      vertex -0.845237 -1.81262 0
    endloop
  endfacet
  facet normal 0 0 -1
    outer loop
      vertex -1 -1.73205 0
      vertex -1 1.73205 0
      vertex -0.845237 1.81262 0
    endloop
  endfacet
  facet normal 0 0 -1
    outer loop
      vertex -1.14715 -1.6383 0
      vertex -1 1.73205 0
      vertex -1 -1.73205 0
    endloop
  endfacet
  facet normal 0 0 -1
    outer loop
      vertex -1.14715 -1.6383 0
      vertex -1.14715 1.6383 0
      vertex -1 1.73205 0
    endloop
  endfacet
  facet normal 0 0 -1
    outer loop
      vertex -1.28558 -1.53209 0
      vertex -1.14715 1.6383 0
      vertex -1.14715 -1.6383 0
    endloop
  endfacet
  facet normal 0 0 -1
    outer loop
      vertex -1.28558 -1.53209 0
      vertex -1.28558 1.53209 0
      vertex -1.14715 1.6383 0
    endloop
  endfacet
  facet normal 0 0 -1
    outer loop
      vertex -1.41421 -1.41421 0
      vertex -1.28558 1.53209 0
      vertex -1.28558 -1.53209 0
    endloop
  endfacet
  facet normal 0 0 -1
    outer loop
      vertex -1.41421 -1.41421 0
      vertex -1.41421 1.41421 0
      vertex -1.28558 1.53209 0
    endloop
  endfacet
  facet normal 0 0 -1
    outer loop
      vertex -1.53209 -1.28558 0
      vertex -1.41421 1.41421 0
      vertex -1.41421 -1.41421 0
    endloop
  endfacet
  facet normal 0 0 -1
    outer loop
      vertex -1.53209 -1.28558 0
      vertex -1.53209 1.28558 0
      vertex -1.41421 1.41421 0
    endloop
  endfacet
  facet normal 0 0 -1
    outer loop
      vertex -1.6383 -1.14715 0
      vertex -1.53209 1.28558 0
      vertex -1.53209 -1.28558 0
    endloop
  endfacet
  facet normal 0 0 -1
    outer loop
      vertex -1.6383 -1.14715 0
      vertex -1.6383 1.14715 0
      vertex -1.53209 1.28558 0
    endloop
  endfacet
  facet normal 0 0 -1
    outer loop
      vertex -1.73205 -1 0
      vertex -1.6383 1.14715 0
      vertex -1.6383 -1.14715 0
    endloop
  endfacet
  facet normal 0 0 -1
    outer loop
      vertex -1.73205 -1 0
      vertex -1.73205 1 0
      vertex -1.6383 1.14715 0
    endloop
  endfacet
  facet normal 0 0 -1
    outer loop
      vertex -1.81262 -0.845237 0
      vertex -1.73205 1 0
      vertex -1.73205 -1 0
    endloop
  endfacet
  facet normal 0 0 -1
    outer loop
      vertex -1.81262 -0.845237 0
      vertex -1.81262 0.845237 0
      vertex -1.73205 1 0
    endloop
  endfacet
  facet normal 0 0 -1
    outer loop
      vertex -1.87939 -0.68404 0
      vertex -1.81262 0.845237 0
      vertex -1.81262 -0.845237 0
    endloop
  endfacet
  facet normal 0 0 -1
    outer loop
      vertex -1.87939 -0.68404 0
      vertex -1.87939 0.68404 0
      vertex -1.81262 0.845237 0
    endloop
  endfacet
  facet normal 0 0 -1
    outer loop
      vertex -1.93185 -0.517638 0
      vertex -1.87939 0.68404 0
      vertex -1.87939 -0.68404 0
    endloop
  endfacet
  facet normal 0 0 -1
    outer loop
      vertex -1.93185 -0.517638 0
      vertex -1.93185 0.517638 0
      vertex -1.87939 0.68404 0
    endloop
  endfacet
  facet normal 0 0 -1
    outer loop
      vertex -1.96962 -0.347296 0
      vertex -1.93185 0.517638 0
      vertex -1.93185 -0.517638 0
    endloop
  endfacet
  facet normal 0 0 -1
    outer loop
      vertex -1.96962 -0.347296 0
      vertex -1.96962 0.347296 0
      vertex -1.93185 0.517638 0
    endloop
  endfacet
  facet normal 0 0 -1
    outer loop
      vertex -1.99239 -0.174311 0
      vertex -1.96962 0.347296 0
      vertex -1.96962 -0.347296 0
    endloop
  endfacet
  facet normal 0 0 -1
    outer loop
      vertex -1.99239 -0.174311 0
      vertex -1.99239 0.174311 0
      vertex -1.96962 0.347296 0
    endloop
  endfacet
  facet normal 0 -0 -1
    outer loop
      vertex -1.99239 0.174311 0
      vertex -1.99239 -0.174311 0
      vertex -2 -0 0
    endloop
  endfacet
  facet normal 0 0 1
    outer loop
      vertex 1.99239 0.174311 9.4
      vertex 1.99239 -0.174311 9.4
      vertex 2 0 9.4
    endloop
  endfacet
  facet normal 0 0 1
    outer loop
      vertex 1.96962 0.347296 9.4
      vertex 1.99239 -0.174311 9.4
      vertex 1.99239 0.174311 9.4
    endloop
  endfacet
  facet normal 0 0 1
    outer loop
      vertex 1.96962 0.347296 9.4
      vertex 1.96962 -0.347296 9.4
      vertex 1.99239 -0.174311 9.4
    endloop
  endfacet
  facet normal 0 0 1
    outer loop
      vertex 1.93185 0.517638 9.4
      vertex 1.96962 -0.347296 9.4
      vertex 1.96962 0.347296 9.4
    endloop
  endfacet
  facet normal 0 0 1
    outer loop
      vertex 1.93185 0.517638 9.4
      vertex 1.93185 -0.517638 9.4
      vertex 1.96962 -0.347296 9.4
    endloop
  endfacet
  facet normal 0 0 1
    outer loop
      vertex 1.87939 0.68404 9.4
      vertex 1.93185 -0.517638 9.4
      vertex 1.93185 0.517638 9.4
    endloop
  endfacet
  facet normal 0 0 1
    outer loop
      vertex 1.87939 0.68404 9.4
      vertex 1.87939 -0.68404 9.4
      vertex 1.93185 -0.517638 9.4
    endloop
  endfacet
  facet normal 0 0 1
    outer loop
      vertex 1.81262 0.845237 9.4
      vertex 1.87939 -0.68404 9.4
      vertex 1.87939 0.68404 9.4
    endloop
  endfacet
  facet normal 0 0 1
    outer loop
      vertex 1.81262 0.845237 9.4
      vertex 1.81262 -0.845237 9.4
      vertex 1.87939 -0.68404 9.4
    endloop
  endfacet
  facet normal 0 0 1
    outer loop
      vertex 1.73205 1 9.4
      vertex 1.81262 -0.845237 9.4
      vertex 1.81262 0.845237 9.4
    endloop
  endfacet
  facet normal 0 0 1
    outer loop
      vertex 1.73205 1 9.4
      vertex 1.73205 -1 9.4
      vertex 1.81262 -0.845237 9.4
    endloop
  endfacet
  facet normal 0 0 1
    outer loop
      vertex 1.6383 1.14715 9.4
      vertex 1.73205 -1 9.4
      vertex 1.73205 1 9.4
    endloop
  endfacet
  facet normal 0 0 1
    outer loop
      vertex 1.6383 1.14715 9.4
      vertex 1.6383 -1.14715 9.4
      vertex 1.73205 -1 9.4
    endloop
  endfacet
  facet normal 0 0 1
    outer loop
      vertex 1.53209 1.28558 9.4
      vertex 1.6383 -1.14715 9.4
      vertex 1.6383 1.14715 9.4
    endloop
  endfacet
  facet normal 0 0 1
    outer loop
      vertex 1.53209 1.28558 9.4
      vertex 1.53209 -1.28558 9.4
      vertex 1.6383 -1.14715 9.4
    endloop
  endfacet
  facet normal 0 0 1
    outer loop
      vertex 1.41421 1.41421 9.4
      vertex 1.53209 -1.28558 9.4
      vertex 1.53209 1.28558 9.4
    endloop
  endfacet
  facet normal 0 0 1
    outer loop
      vertex 1.41421 1.41421 9.4
      vertex 1.41421 -1.41421 9.4
      vertex 1.53209 -1.28558 9.4
    endloop
  endfacet
  facet normal 0 0 1
    outer loop
      vertex 1.28558 1.53209 9.4
      vertex 1.41421 -1.41421 9.4
      vertex 1.41421 1.41421 9.4
    endloop
  endfacet
  facet normal 0 0 1
    outer loop
      vertex 1.28558 1.53209 9.4
      vertex 1.28558 -1.53209 9.4
      vertex 1.41421 -1.41421 9.4
    endloop
  endfacet
  facet normal 0 0 1
    outer loop
      vertex 1.14715 1.6383 9.4
      vertex 1.28558 -1.53209 9.4
      vertex 1.28558 1.53209 9.4
    endloop
  endfacet
  facet normal 0 0 1
    outer loop
      vertex 1.14715 1.6383 9.4
      vertex 1.14715 -1.6383 9.4
      vertex 1.28558 -1.53209 9.4
    endloop
  endfacet
  facet normal 0 0 1
    outer loop
      vertex 1 1.73205 9.4
      vertex 1.14715 -1.6383 9.4
      vertex 1.14715 1.6383 9.4
    endloop
  endfacet
  facet normal 0 0 1
    outer loop
      vertex 1 1.73205 9.4
      vertex 1 -1.73205 9.4
      vertex 1.14715 -1.6383 9.4
    endloop
  endfacet
  facet normal 0 0 1
    outer loop
      vertex 0.845237 1.81262 9.4
      vertex 1 -1.73205 9.4
      vertex 1 1.73205 9.4
    endloop
  endfacet
  facet normal 0 0 1
    outer loop
      vertex 0.845237 1.81262 9.4
      vertex 0.845237 -1.81262 9.4
      vertex 1 -1.73205 9.4
    endloop
  endfacet
  facet normal 0 0 1
    outer loop
      vertex 0.68404 1.87939 9.4
      vertex 0.845237 -1.81262 9.4
      vertex 0.845237 1.81262 9.4
    endloop
  endfacet
  facet normal 0 0 1
    outer loop
      vertex 0.68404 1.87939 9.4
      vertex 0.68404 -1.87939 9.4
      vertex 0.845237 -1.81262 9.4
    endloop
  endfacet
  facet normal 0 0 1
    outer loop
      vertex 0.517638 1.93185 9.4
      vertex 0.68404 -1.87939 9.4
      vertex 0.68404 1.87939 9.4
    endloop
  endfacet
  facet normal 0 0 1
    outer loop
      vertex 0.517638 1.93185 9.4
      vertex 0.517638 -1.93185 9.4
      vertex 0.68404 -1.87939 9.4
    endloop
  endfacet
  facet normal 0 0 1
    outer loop
      vertex 0.347296 1.96962 9.4
      vertex 0.517638 -1.93185 9.4
      vertex 0.517638 1.93185 9.4
    endloop
  endfacet
  facet normal 0 0 1
    outer loop
      vertex 0.347296 1.96962 9.4
      vertex 0.347296 -1.96962 9.4
      vertex 0.517638 -1.93185 9.4
    endloop
  endfacet
  facet normal 0 0 1
    outer loop
      vertex 0.174311 1.99239 9.4
      vertex 0.347296 -1.96962 9.4
      vertex 0.347296 1.96962 9.4
    endloop
  endfacet
  facet normal 0 0 1
    outer loop
      vertex 0.174311 1.99239 9.4
      vertex 0.174311 -1.99239 9.4
      vertex 0.347296 -1.96962 9.4
    endloop
  endfacet
  facet normal 0 0 1
    outer loop
      vertex 0 2 9.4
      vertex 0.174311 -1.99239 9.4
      vertex 0.174311 1.99239 9.4
    endloop
  endfacet
  facet normal 0 0 1
    outer loop
      vertex 0 2 9.4
      vertex -0 -2 9.4
      vertex 0.174311 -1.99239 9.4
    endloop
  endfacet
  facet normal -0 0 1
    outer loop
      vertex -0.174311 1.99239 9.4
      vertex -0 -2 9.4
      vertex 0 2 9.4
    endloop
  endfacet
  facet normal 0 0 1
    outer loop
      vertex -0.174311 1.99239 9.4
      vertex -0.174311 -1.99239 9.4
      vertex -0 -2 9.4
    endloop
  endfacet
  facet normal -0 0 1
    outer loop
      vertex -0.347296 1.96962 9.4
      vertex -0.174311 -1.99239 9.4
      vertex -0.174311 1.99239 9.4
    endloop
  endfacet
  facet normal 0 0 1
    outer loop
      vertex -0.347296 1.96962 9.4
      vertex -0.347296 -1.96962 9.4
      vertex -0.174311 -1.99239 9.4
    endloop
  endfacet
  facet normal -0 0 1
    outer loop
      vertex -0.517638 1.93185 9.4
      vertex -0.347296 -1.96962 9.4
      vertex -0.347296 1.96962 9.4
    endloop
  endfacet
  facet normal 0 0 1
    outer loop
      vertex -0.517638 1.93185 9.4
      vertex -0.517638 -1.93185 9.4
      vertex -0.347296 -1.96962 9.4
    endloop
  endfacet
  facet normal -0 0 1
    outer loop
      vertex -0.68404 1.87939 9.4
      vertex -0.517638 -1.93185 9.4
      vertex -0.517638 1.93185 9.4
    endloop
  endfacet
  facet normal 0 0 1
    outer loop
      vertex -0.68404 1.87939 9.4
      vertex -0.68404 -1.87939 9.4
      vertex -0.517638 -1.93185 9.4
    endloop
  endfacet
  facet normal -0 0 1
    outer loop
      vertex -0.845237 1.81262 9.4
      vertex -0.68404 -1.87939 9.4
      vertex -0.68404 1.87939 9.4
    endloop
  endfacet
  facet normal 0 0 1
    outer loop
      vertex -0.845237 1.81262 9.4
      vertex -0.845237 -1.81262 9.4
      vertex -0.68404 -1.87939 9.4
    endloop
  endfacet
  facet normal -0 0 1
    outer loop
      vertex -1 1.73205 9.4
      vertex -0.845237 -1.81262 9.4
      vertex -0.845237 1.81262 9.4
    endloop
  endfacet
  facet normal 0 0 1
    outer loop
      vertex -1 1.73205 9.4
      vertex -1 -1.73205 9.4
      vertex -0.845237 -1.81262 9.4
    endloop
  endfacet
  facet normal -0 0 1
    outer loop
      vertex -1.14715 1.6383 9.4
      vertex -1 -1.73205 9.4
      vertex -1 1.73205 9.4
    endloop
  endfacet
  facet normal 0 0 1
    outer loop
      vertex -1.14715 1.6383 9.4
      vertex -1.14715 -1.6383 9.4
      vertex -1 -1.73205 9.4
    endloop
  endfacet
  facet normal -0 0 1
    outer loop
      vertex -1.28558 1.53209 9.4
      vertex -1.14715 -1.6383 9.4
      vertex -1.14715 1.6383 9.4
    endloop
  endfacet
  facet normal 0 0 1
    outer loop
      vertex -1.28558 1.53209 9.4
      vertex -1.28558 -1.53209 9.4
      vertex -1.14715 -1.6383 9.4
    endloop
  endfacet
  facet normal -0 0 1
    outer loop
      vertex -1.41421 1.41421 9.4
      vertex -1.28558 -1.53209 9.4
      vertex -1.28558 1.53209 9.4
    endloop
  endfacet
  facet normal 0 0 1
    outer loop
      vertex -1.41421 1.41421 9.4
      vertex -1.41421 -1.41421 9.4
      vertex -1.28558 -1.53209 9.4
    endloop
  endfacet
  facet normal -0 0 1
    outer loop
      vertex -1.53209 1.28558 9.4
      vertex -1.41421 -1.41421 9.4
      vertex -1.41421 1.41421 9.4
    endloop
  endfacet
  facet normal 0 0 1
    outer loop
      vertex -1.53209 1.28558 9.4
      vertex -1.53209 -1.28558 9.4
      vertex -1.41421 -1.41421 9.4
    endloop
  endfacet
  facet normal -0 0 1
    outer loop
      vertex -1.6383 1.14715 9.4
      vertex -1.53209 -1.28558 9.4
      vertex -1.53209 1.28558 9.4
    endloop
  endfacet
  facet normal 0 0 1
    outer loop
      vertex -1.6383 1.14715 9.4
      vertex -1.6383 -1.14715 9.4
      vertex -1.53209 -1.28558 9.4
    endloop
  endfacet
  facet normal -0 0 1
    outer loop
      vertex -1.73205 1 9.4
      vertex -1.6383 -1.14715 9.4
      vertex -1.6383 1.14715 9.4
    endloop
  endfacet
  facet normal 0 0 1
    outer loop
      vertex -1.73205 1 9.4
      vertex -1.73205 -1 9.4
      vertex -1.6383 -1.14715 9.4
    endloop
  endfacet
  facet normal -0 0 1
    outer loop
      vertex -1.81262 0.845237 9.4
      vertex -1.73205 -1 9.4
      vertex -1.73205 1 9.4
    endloop
  endfacet
  facet normal 0 0 1
    outer loop
      vertex -1.81262 0.845237 9.4
      vertex -1.81262 -0.845237 9.4
      vertex -1.73205 -1 9.4
    endloop
  endfacet
  facet normal -0 0 1
    outer loop
      vertex -1.87939 0.68404 9.4
      vertex -1.81262 -0.845237 9.4
      vertex -1.81262 0.845237 9.4
    endloop
  endfacet
  facet normal 0 0 1
    outer loop
      vertex -1.87939 0.68404 9.4
      vertex -1.87939 -0.68404 9.4
      vertex -1.81262 -0.845237 9.4
    endloop
  endfacet
  facet normal -0 0 1
    outer loop
      vertex -1.93185 0.517638 9.4
      vertex -1.87939 -0.68404 9.4
      vertex -1.87939 0.68404 9.4
    endloop
  endfacet
  facet normal 0 0 1
    outer loop
      vertex -1.93185 0.517638 9.4
      vertex -1.93185 -0.517638 9.4
      vertex -1.87939 -0.68404 9.4
    endloop
  endfacet
  facet normal -0 0 1
    outer loop
      vertex -1.96962 0.347296 9.4
      vertex -1.93185 -0.517638 9.4
      vertex -1.93185 0.517638 9.4
    endloop
  endfacet
  facet normal 0 0 1
    outer loop
      vertex -1.96962 0.347296 9.4
      vertex -1.96962 -0.347296 9.4
      vertex -1.93185 -0.517638 9.4
    endloop
  endfacet
  facet normal -0 0 1
    outer loop
      vertex -1.99239 0.174311 9.4
      vertex -1.96962 -0.347296 9.4
      vertex -1.96962 0.347296 9.4
    endloop
  endfacet
  facet normal 0 0 1
    outer loop
      vertex -1.99239 0.174311 9.4
      vertex -1.99239 -0.174311 9.4
      vertex -1.96962 -0.347296 9.4
    endloop
  endfacet
  facet normal 0 -0 1
    outer loop
      vertex -1.99239 -0.174311 9.4
      vertex -1.99239 0.174311 9.4
      vertex -2 -0 9.4
    endloop
  endfacet
endsolid OpenSCAD_Model
